<?xml version="1.0" standalone="no"?>
<!DOCTYPE svg PUBLIC "-//W3C//DTD SVG 20010904//EN"
 "http://www.w3.org/TR/2001/REC-SVG-20010904/DTD/svg10.dtd">
<svg version="1.0" xmlns="http://www.w3.org/2000/svg"
 width="413.000000pt" height="413.000000pt" viewBox="0 0 413.000000 413.000000"
 preserveAspectRatio="xMidYMid meet">
<metadata>
Created by potrace 1.11, written by Peter Selinger 2001-2013
</metadata>
<g transform="translate(0.000000,413.000000) scale(0.100000,-0.100000)"
fill="#000000" stroke="none">
<path d="M3027 4114 c-1 -1 -29 -5 -62 -7 -33 -3 -61 -6 -62 -7 -2 -2 -11 -3
-20 -5 -10 -1 -27 -5 -38 -9 -11 -4 -33 -13 -49 -19 -38 -14 -75 -55 -71 -79
2 -10 18 -30 35 -45 51 -42 76 -106 74 -188 -2 -73 -9 -117 -23 -144 -5 -9
-10 -20 -11 -26 -8 -33 -23 -65 -31 -65 -5 0 -9 -6 -9 -13 0 -8 -16 -29 -35
-48 -59 -59 -61 -60 -92 -48 -15 6 -35 12 -43 14 -8 3 -34 11 -57 19 -22 9
-52 17 -65 20 -12 3 -38 9 -56 15 -18 5 -35 10 -37 10 -3 1 -6 1 -7 2 -18 5
-115 22 -143 25 -16 1 -30 3 -30 4 0 1 -21 3 -46 4 -25 2 -50 5 -55 8 -12 7
-253 2 -328 -6 -51 -6 -94 -14 -161 -32 -11 -3 -24 -6 -30 -7 -34 -8 -135 -51
-135 -58 0 -5 -7 -6 -15 -3 -8 4 -15 1 -15 -5 0 -6 -9 -11 -20 -11 -11 0 -20
-5 -20 -11 0 -5 -4 -8 -9 -4 -6 3 -13 0 -18 -7 -4 -7 -23 -22 -42 -32 -19 -11
-43 -26 -53 -35 -10 -9 -21 -15 -23 -14 -8 4 -190 -179 -187 -188 1 -5 -2 -9
-7 -9 -4 0 -24 -24 -44 -53 -41 -63 -100 -177 -91 -177 4 0 1 -6 -5 -14 -7 -8
-14 -25 -17 -37 -9 -41 -12 -54 -14 -54 -1 0 -3 -11 -5 -25 -11 -88 -12 -117
-1 -130 17 -22 55 -42 66 -35 6 4 10 1 10 -4 0 -6 -5 -11 -11 -11 -5 0 -8 -4
-4 -9 3 -5 1 -12 -4 -15 -5 -3 -28 -45 -52 -93 -24 -49 -47 -91 -52 -94 -5 -3
-8 -9 -7 -13 0 -3 -12 -34 -29 -69 -53 -112 -78 -171 -104 -237 -14 -36 -31
-78 -38 -95 -7 -16 -11 -36 -10 -42 1 -7 -2 -13 -6 -13 -5 0 -9 -8 -10 -17 -1
-10 -7 -31 -14 -48 -7 -16 -13 -37 -13 -45 -1 -8 -4 -19 -7 -25 -7 -11 -55
-220 -64 -275 -13 -88 -19 -151 -19 -217 -1 -40 -5 -73 -9 -73 -5 0 -5 -5 -1
-12 11 -17 11 -78 1 -78 -4 0 -5 -6 0 -12 9 -15 9 -15 16 -93 8 -73 32 -187
46 -213 6 -11 8 -22 5 -24 -5 -5 23 -82 51 -145 8 -17 15 -36 15 -42 0 -6 5
-11 12 -11 6 0 9 -3 6 -6 -8 -8 42 -100 106 -197 79 -118 215 -286 234 -288 8
-1 48 -9 72 -14 8 -2 15 -4 15 -5 0 -1 11 -3 25 -5 14 -2 41 -6 60 -9 67 -11
146 -18 217 -20 40 0 73 -5 73 -9 0 -5 5 -5 10 -2 6 4 43 9 83 11 72 5 132 11
132 14 0 1 11 3 25 5 41 5 82 14 134 29 27 8 53 13 57 10 4 -2 9 1 11 6 2 6
13 12 26 13 12 0 22 4 22 8 0 4 11 10 25 13 13 3 34 10 47 15 13 5 28 9 33 11
6 1 17 7 25 14 8 7 41 25 73 40 31 15 57 32 57 37 0 5 9 9 20 9 11 0 20 5 20
10 0 6 6 10 14 10 8 0 16 3 18 8 2 4 23 21 48 37 25 17 50 35 56 40 6 6 28 24
49 40 21 17 67 57 101 91 35 33 64 59 64 56 0 -3 9 6 19 19 10 13 42 48 70 78
29 30 62 68 74 84 12 15 33 41 47 57 44 50 60 70 55 70 -3 0 4 10 15 23 12 12
35 43 52 69 17 27 35 48 40 48 5 0 7 4 4 9 -4 5 -3 11 2 13 4 1 18 20 31 41
12 20 27 37 33 37 6 0 8 7 4 15 -3 8 -1 15 4 15 5 0 23 26 41 58 18 31 39 63
45 70 7 6 16 21 19 32 8 25 20 25 44 1 16 -16 29 -18 76 -12 6 0 23 12 38 26
15 14 27 23 27 21 0 -3 19 13 43 37 24 23 43 44 41 47 -3 8 23 29 30 23 3 -4
6 0 6 9 0 8 9 25 20 38 11 13 20 27 20 31 0 4 6 14 13 21 11 12 58 102 63 123
2 6 12 34 23 63 12 28 18 52 15 52 -4 0 -2 6 3 13 5 6 9 21 9 32 -1 11 2 22 6
25 13 10 22 126 21 255 -1 140 -5 180 -24 247 -17 58 -17 60 -23 84 -2 12 -17
48 -32 80 -15 33 -27 65 -27 72 0 6 -4 12 -9 12 -4 0 -8 7 -8 15 0 8 -4 15
-10 15 -5 0 -10 7 -10 16 0 8 -13 35 -30 59 -16 24 -30 48 -30 54 0 6 -4 11
-10 11 -5 0 -10 7 -10 15 0 9 -7 18 -15 21 -8 4 -15 10 -15 16 0 30 -263 328
-290 328 -5 0 -10 4 -10 9 0 5 -33 35 -72 67 -80 65 -92 77 -78 82 6 2 10 9
10 15 0 15 42 99 61 122 8 9 24 28 36 41 12 13 21 24 19 24 -2 0 29 33 68 73
39 39 81 85 94 101 12 16 22 25 22 21 0 -5 16 14 35 41 19 27 35 45 35 40 0
-5 10 4 22 20 12 16 29 36 38 44 96 97 109 123 88 175 -11 28 -58 93 -58 81 0
-4 -12 0 -27 8 -16 7 -53 17 -83 21 -51 7 -258 14 -263 9z"/>
</g>
</svg>
